name Walk9.mot
datacolumns 19
datarows 27
range 1.57500000 1.70500000
endheader

                time	   L_ground_force_vx	   L_ground_force_vy	   L_ground_force_vz	   L_ground_force_px	   L_ground_force_py	   L_ground_force_pz	   R_ground_force_vx	   R_ground_force_vy	   R_ground_force_vz	   R_ground_force_px	   R_ground_force_py	   R_ground_force_pz	   L_ground_torque_x	   L_ground_torque_y	   L_ground_torque_z	   R_ground_torque_x	   R_ground_torque_y	   R_ground_torque_z	
          1.57500000	         20.42005417	        638.59039550	         36.83323597	         -0.20130510	          0.00000000	         -0.05762726	         -0.01968231	          0.19740455	         -0.00388312	          0.00020256	          0.00000000	          0.00005993	          0.00000000	         -1.38358384	          0.00000000	          0.00000000	         -0.00015092	          0.00000000	
          1.58000000	         22.23824114	        642.57872160	         37.70588641	         -0.19886625	          0.00000000	         -0.05795425	         -0.03179536	          0.27536909	         -0.00473309	          0.00025849	          0.00000000	          0.00007614	          0.00000000	         -1.40242033	          0.00000000	          0.00000000	         -0.00020569	          0.00000000	
          1.58500000	         24.14113147	        647.10758633	         38.62331038	         -0.19646930	          0.00000000	         -0.05828035	         -0.04676294	          0.36298466	         -0.00547478	          0.00031384	          0.00000000	          0.00009203	          0.00000000	         -1.41048954	          0.00000000	          0.00000000	         -0.00026572	          0.00000000	
          1.59000000	         26.18195678	        652.32881394	         39.57156545	         -0.19414492	          0.00000000	         -0.05859810	         -0.06433589	          0.45484441	         -0.00595617	          0.00036143	          0.00000000	          0.00010546	          0.00000000	         -1.40608948	          0.00000000	          0.00000000	         -0.00032656	          0.00000000	
          1.59500000	         28.41268996	        658.35341628	         40.53945122	         -0.19192078	          0.00000000	         -0.05889801	         -0.08380438	          0.54199354	         -0.00597227	          0.00039107	          0.00000000	          0.00011339	          0.00000000	         -1.38756345	          0.00000000	          0.00000000	         -0.00038116	          0.00000000	
          1.60000000	         30.87959498	        665.24201932	         41.51696767	         -0.18981952	          0.00000000	         -0.05916990	         -0.10382772	          0.61104911	         -0.00526084	          0.00038906	          0.00000000	          0.00011178	          0.00000000	         -1.35379040	          0.00000000	          0.00000000	         -0.00041930	          0.00000000	
          1.60500000	         33.61947213	        672.99982352	         42.49140175	         -0.18785783	          0.00000000	         -0.05940447	         -0.12224682	          0.64337345	         -0.00350263	          0.00033794	          0.00000000	          0.00009547	          0.00000000	         -1.30463330	          0.00000000	          0.00000000	         -0.00042705	          0.00000000	
          1.61000000	         36.65677466	        681.57115683	         43.44149383	         -0.18604507	          0.00000000	         -0.05959518	         -0.13589274	          0.61443335	         -0.00032894	          0.00021656	          0.00000000	          0.00005828	          0.00000000	         -1.24179970	          0.00000000	          0.00000000	         -0.00038648	          0.00000000	
          1.61500000	         40.00202541	        690.83991481	         44.33027362	         -0.18438224	          0.00000000	         -0.05973708	         -0.14041251	          0.49352787	          0.00466061	          0.00000056	          0.00000000	         -0.00000692	          0.00000000	         -1.16977609	          0.00000000	          0.00000000	         -0.00027555	          0.00000000	
          1.62000000	         43.64926871	        700.63784375	         45.10464477	         -0.18286270	          0.00000000	         -0.05982521	         -0.13014374	          0.24412448	          0.01186643	         -0.00033633	          0.00000000	         -0.00010772	          0.00000000	         -1.09626496	          0.00000000	          0.00000000	         -0.00006859	          0.00000000	
          1.62500000	         47.57301850	        710.75962886	         45.71705424	         -0.18147347	          0.00000000	         -0.05985638	         -0.09808046	         -0.17489752	          0.02163958	         -0.00082018	          0.00000000	         -0.00025164	          0.00000000	         -1.03019059	          0.00000000	          0.00000000	          0.00026261	          0.00000000	
          1.63000000	         51.73411082	        720.98362959	         46.14346861	         -0.18019779	          0.00000000	         -0.05983044	         -0.03598555	         -0.80674216	          0.03421086	         -0.00147355	          0.00000000	         -0.00044501	          0.00000000	         -0.97901122	          0.00000000	          0.00000000	          0.00074668	          0.00000000	
          1.63500000	         56.09114555	        731.08709228	         46.37780534	         -0.17901764	          0.00000000	         -0.05974848	          0.06528202	         -1.69253389	          0.04959510	         -0.00231066	          0.00000000	         -0.00069168	          0.00000000	         -0.94748960	          0.00000000	          0.00000000	          0.00140945	          0.00000000	
          1.64000000	         60.60352508	        740.85942882	         46.42432659	         -0.17791601	          0.00000000	         -0.05961313	          0.21514550	         -2.86508260	          0.06746850	         -0.00333107	          0.00000000	         -0.00099103	          0.00000000	         -0.93768317	          0.00000000	          0.00000000	          0.00226913	          0.00000000	
          1.64500000	         65.22959403	        750.11219447	         46.29478368	         -0.17687877	          0.00000000	         -0.05942819	          0.42230610	         -4.34018612	          0.08701917	         -0.00451146	          0.00000000	         -0.00133560	          0.00000000	         -0.94944151	          0.00000000	          0.00000000	          0.00332985	          0.00000000	
          1.65000000	         69.92807487	        758.67975836	         46.00778021	         -0.17589426	          0.00000000	         -0.05919892	          0.69326592	         -6.10516581	          0.10677416	         -0.00579574	          0.00000000	         -0.00170820	          0.00000000	         -0.98067215	          0.00000000	          0.00000000	          0.00457325	          0.00000000	
          1.65500000	         74.66344264	        766.41365880	         45.58787175	         -0.17495270	          0.00000000	         -0.05893318	          1.03029603	         -8.10450094	          0.12441146	         -0.00708366	          0.00000000	         -0.00207855	          0.00000000	         -1.02760907	          0.00000000	          0.00000000	          0.00594818	          0.00000000	
          1.66000000	         79.40932929	        773.17719073	         45.06109544	         -0.17404633	          0.00000000	         -0.05863976	          1.42878950	        -10.22271103	          0.13657127	         -0.00821839	          0.00000000	         -0.00239973	          0.00000000	         -1.08536450	          0.00000000	          0.00000000	          0.00735863	          0.00000000	
          1.66500000	         84.14631203	        778.84618177	         44.45026410	         -0.17316993	          0.00000000	         -0.05832586	          1.87398227	        -12.26505755	          0.13868995	         -0.00897430	          0.00000000	         -0.00260462	          0.00000000	         -1.14869024	          0.00000000	          0.00000000	          0.00865054	          0.00000000	
          1.67000000	         88.85729185	        783.30823279	         43.77244267	         -0.17232032	          0.00000000	         -0.05799752	          2.33709221	        -13.93722527	          0.12488943	         -0.00904628	          0.00000000	         -0.00260290	          0.00000000	         -1.21243308	          0.00000000	          0.00000000	          0.00959825	          0.00000000	
          1.67500000	         93.52499486	        786.45710047	         43.03849265	         -0.17149573	          0.00000000	         -0.05766094	          2.77102735	        -14.82591845	          0.08796679	         -0.00804286	          0.00000000	         -0.00227920	          0.00000000	         -1.27170911	          0.00000000	          0.00000000	          0.00989237	          0.00000000	
          1.68000000	         98.13182021	        788.18562200	         42.25208647	         -0.17069559	          0.00000000	         -0.05732134	          3.10595153	        -14.38327650	          0.01954161	         -0.00548624	          0.00000000	         -0.00149335	          0.00000000	         -1.32246275	          0.00000000	          0.00000000	          0.00913101	          0.00000000	
          1.68500000	        102.65832048	        788.37926132	         41.40919795	         -0.16992020	          0.00000000	         -0.05698082	          3.24517446	        -11.91916775	         -0.08956926	         -0.00082288	          0.00000000	         -0.00008373	          0.00000000	         -1.36190181	          0.00000000	          0.00000000	          0.00681764	          0.00000000	
          1.69000000	        107.08112950	        786.91445014	         40.49969384	         -0.16917024	          0.00000000	         -0.05663833	          3.06205473	         -6.60671849	         -0.24866814	          0.00655054	          0.00000000	          0.00212473	          0.00000000	         -1.38831744	          0.00000000	          0.00000000	          0.00236942	          0.00000000	
          1.69500000	        111.36975293	        783.65860136	         39.50869056	         -0.16844696	          0.00000000	         -0.05629231	          2.39886421	          2.49220101	         -0.46609593	          0.01724064	          0.00000000	          0.00530652	          0.00000000	         -1.40067059	          0.00000000	          0.00000000	         -0.00485926	          0.00000000	
          1.70000000	        115.48497954	        778.47121685	         38.41788032	         -0.16775213	          0.00000000	         -0.05594195	          1.06885106	         16.37351310	         -0.74766570	          0.03178431	          0.00000000	          0.00961369	          0.00000000	         -1.39835125	          0.00000000	          0.00000000	         -0.01553224	          0.00000000	
          1.70500000	        119.37934657	        771.20658056	         37.20809566	         -0.16708753	          0.00000000	         -0.05558614	         -1.13696382	         36.00043559	         -1.09453171	          0.05054352	          0.00000000	          0.01514456	          0.00000000	         -1.38109101	          0.00000000	          0.00000000	         -0.03025991	          0.00000000	
